<svg width="316" height="70" viewBox="0 0 316 70" fill="none" xmlns="http://www.w3.org/2000/svg">
<path d="M107.592 28.408C107.88 28.408 108.024 28.648 108.024 29.128C108.024 29.608 107.864 30.528 107.544 31.888C107.24 33.248 106.696 35.088 105.912 37.408C105.144 39.728 104.352 41.616 103.536 43.072C103.776 43.056 104.2 43.04 104.808 43.024C105.432 43.008 105.936 42.992 106.32 42.976C106.72 42.96 107.192 42.904 107.736 42.808C108.296 42.728 108.752 42.608 109.104 42.448C109.952 42.048 110.448 41.456 110.592 40.672C110.56 40.464 110.568 40.344 110.616 40.312C110.68 40.296 110.728 40.328 110.76 40.408C110.872 40.616 110.928 40.84 110.928 41.08C110.928 41.32 110.8 41.648 110.544 42.064C110.288 42.496 109.784 42.864 109.032 43.168C108.28 43.488 106.328 43.664 103.176 43.696C102.408 44.848 101.432 45.864 100.248 46.744C99.08 47.624 97.84 48.312 96.528 48.808C95.216 49.304 94.104 49.552 93.192 49.552C92.296 49.552 91.536 49.448 90.912 49.24C89.712 48.84 89.112 48.232 89.112 47.416C89.112 46.36 90.08 45.432 92.016 44.632C94.496 43.608 97.952 43.096 102.384 43.096C103.952 39.256 105.048 36.16 105.672 33.808C104.216 36.944 102.592 39.12 100.8 40.336C99.856 40.976 98.944 41.296 98.064 41.296C97.184 41.296 96.496 41.056 96 40.576C95.52 40.096 95.28 39.44 95.28 38.608C95.28 36.864 96.464 34.064 98.832 30.208C99.568 29.008 100.16 27.792 100.608 26.56C101.12 25.2 101.376 24.032 101.376 23.056C101.376 22.08 101.056 21.384 100.416 20.968C99.792 20.552 99.032 20.344 98.136 20.344C97.784 20.344 97.408 20.384 97.008 20.464C94.128 21.008 91.528 22.504 89.208 24.952C88.04 26.184 87.184 27.448 86.64 28.744C86.08 30.136 85.8 31.328 85.8 32.32C85.8 32.736 85.856 33.12 85.968 33.472C86.288 34.64 86.92 35.44 87.864 35.872C88.344 36.08 88.84 36.184 89.352 36.184C91.128 36.184 92.64 35.192 93.888 33.208C94.592 32.072 94.944 31.08 94.944 30.232C94.944 29.128 94.448 28.576 93.456 28.576C93.264 28.576 93.032 28.608 92.76 28.672C92.488 28.72 92.344 28.696 92.328 28.6C92.312 28.472 92.496 28.36 92.88 28.264C93.264 28.168 93.632 28.12 93.984 28.12C94.816 28.12 95.376 28.472 95.664 29.176C95.792 29.48 95.856 29.808 95.856 30.16C95.856 30.864 95.608 31.68 95.112 32.608C94.136 34.384 92.704 35.664 90.816 36.448C90.24 36.688 89.712 36.808 89.232 36.808C87.68 36.808 86.464 36.248 85.584 35.128C84.816 34.184 84.432 33.104 84.432 31.888C84.432 30.672 84.728 29.456 85.32 28.24C85.912 27.024 86.68 25.904 87.624 24.88C88.584 23.856 89.608 22.992 90.696 22.288C91.784 21.584 92.928 21 94.128 20.536C95.392 20.04 96.552 19.792 97.608 19.792C98.664 19.792 99.6 19.952 100.416 20.272C101.264 20.656 101.864 21.176 102.216 21.832C102.568 22.472 102.744 23.152 102.744 23.872C102.744 25.68 102.08 27.688 100.752 29.896C98.688 33.416 97.44 36.152 97.008 38.104C96.944 38.44 96.912 38.792 96.912 39.16C96.912 39.528 97.032 39.872 97.272 40.192C97.512 40.512 97.864 40.672 98.328 40.672C98.984 40.672 99.696 40.392 100.464 39.832C101.376 39.192 102.288 38.144 103.2 36.688C104.72 34.256 105.864 31.768 106.632 29.224C106.68 28.968 106.824 28.768 107.064 28.624C107.304 28.48 107.48 28.408 107.592 28.408ZM90.408 47.656C90.408 47.784 90.44 47.912 90.504 48.04C90.84 48.584 91.608 48.856 92.808 48.856C94.024 48.856 95.176 48.656 96.264 48.256C97.368 47.856 98.44 47.264 99.48 46.48C100.52 45.712 101.376 44.784 102.048 43.696C97.856 43.696 94.64 44.344 92.4 45.64C91.072 46.408 90.408 47.08 90.408 47.656ZM116.352 31.6C117.52 31.6 118.104 32.336 118.104 33.808C118.104 34.48 117.928 35.2 117.576 35.968C117.128 37.008 116.456 37.952 115.56 38.8C115.768 39.2 116.144 39.4 116.688 39.4C117.12 39.4 117.528 39.184 117.912 38.752C118.392 38.256 118.736 37.824 118.944 37.456C119.152 37.072 119.304 36.792 119.4 36.616C119.496 36.44 119.616 36.192 119.76 35.872C119.92 35.536 120.016 35.336 120.048 35.272C120.08 35.192 120.136 35.152 120.216 35.152C120.376 35.136 120.456 35.192 120.456 35.32C120.456 35.368 120.44 35.424 120.408 35.488L120.264 35.824C120.168 36.048 120.096 36.208 120.048 36.304C120 36.4 119.912 36.576 119.784 36.832C119.672 37.072 119.568 37.264 119.472 37.408C119.392 37.552 119.272 37.744 119.112 37.984C118.968 38.224 118.832 38.416 118.704 38.56C118.592 38.704 118.448 38.864 118.272 39.04C118.096 39.216 117.928 39.352 117.768 39.448C117.368 39.688 116.992 39.808 116.64 39.808C115.984 39.808 115.472 39.6 115.104 39.184C114.368 39.728 113.688 40 113.064 40C111.896 40 111.312 39.264 111.312 37.792C111.312 37.12 111.488 36.4 111.84 35.632C112.32 34.512 112.992 33.56 113.856 32.776C114.736 31.992 115.568 31.6 116.352 31.6ZM116.616 32.344C116.184 32.344 115.672 32.632 115.08 33.208C114.488 33.784 113.96 34.568 113.496 35.56C112.936 36.712 112.656 37.656 112.656 38.392C112.656 39.128 112.936 39.496 113.496 39.496C113.896 39.496 114.344 39.28 114.84 38.848C114.584 38.48 114.456 38.088 114.456 37.672C114.488 36.984 114.768 36.64 115.296 36.64C115.504 36.64 115.672 36.712 115.8 36.856C115.944 37 116.016 37.136 116.016 37.264C116.016 37.376 116 37.496 115.968 37.624C116.24 37.224 116.552 36.656 116.904 35.92C117.304 35.104 117.504 34.304 117.504 33.52C117.504 32.736 117.208 32.344 116.616 32.344ZM122.783 38.608C122.783 37.92 123.079 37.088 123.671 36.112C123.415 36.112 123.343 35.984 123.455 35.728L123.887 34.888C124.431 33.848 124.879 32.968 125.231 32.248C125.391 31.912 125.703 31.744 126.167 31.744H127.631C127.055 32.16 126.471 32.968 125.879 34.168C125.303 35.352 124.855 36.288 124.535 36.976C124.215 37.648 124.055 38.16 124.055 38.512C124.055 38.864 124.111 39.112 124.223 39.256C124.351 39.4 124.519 39.472 124.727 39.472C125.031 39.472 125.455 39.152 125.999 38.512C126.847 37.52 128.039 35.432 129.575 32.248C129.751 31.912 130.063 31.744 130.511 31.744H131.807C131.455 32.016 131.175 32.296 130.967 32.584C130.775 32.872 130.503 33.384 130.151 34.12C129.191 36.04 128.655 37.312 128.543 37.936C128.495 38.16 128.471 38.368 128.471 38.56C128.471 39.072 128.647 39.344 128.999 39.376C129.863 39.376 130.927 38.04 132.191 35.368C132.287 35.144 132.383 35.056 132.479 35.104C132.575 35.152 132.623 35.216 132.623 35.296C132.623 35.376 132.551 35.56 132.407 35.848C132.263 36.136 132.119 36.416 131.975 36.688C131.847 36.96 131.639 37.336 131.351 37.816C131.079 38.28 130.823 38.648 130.583 38.92C129.959 39.624 129.343 39.976 128.735 39.976C128.143 39.976 127.735 39.712 127.511 39.184C127.415 38.944 127.367 38.64 127.367 38.272C127.367 37.904 127.447 37.448 127.607 36.904C126.439 38.952 125.359 39.976 124.367 39.976C123.503 39.976 122.999 39.616 122.855 38.896C122.807 38.816 122.783 38.72 122.783 38.608ZM139.041 30.376C139.041 31.096 138.585 31.776 137.673 32.416C137.993 32.432 138.417 32.44 138.945 32.44C139.489 32.44 140.169 32.4 140.985 32.32C141.017 32.368 141.033 32.496 141.033 32.704C141.033 32.912 140.937 33.224 140.745 33.64C140.553 34.04 140.377 34.392 140.217 34.696C140.073 34.984 139.929 35.264 139.785 35.536C139.657 35.792 139.505 36.112 139.329 36.496C139.169 36.88 139.033 37.232 138.921 37.552C138.521 38.768 138.585 39.376 139.113 39.376C139.785 39.376 140.777 38.04 142.089 35.368C142.201 35.16 142.289 35.08 142.353 35.128C142.433 35.176 142.473 35.24 142.473 35.32C142.473 35.384 142.369 35.632 142.161 36.064C141.953 36.48 141.729 36.912 141.489 37.36C141.249 37.808 140.873 38.328 140.361 38.92C139.753 39.656 139.169 40.024 138.609 40.024C137.985 40.024 137.553 39.648 137.313 38.896C137.265 38.752 137.241 38.536 137.241 38.248C137.241 37.96 137.329 37.576 137.505 37.096C137.697 36.616 137.993 36.032 138.393 35.344C138.793 34.656 139.017 34.256 139.065 34.144C139.113 34.016 139.137 33.896 139.137 33.784C139.137 33.288 138.497 33.024 137.217 32.992L136.929 33.76C135.921 36.4 134.953 38.168 134.025 39.064C133.865 39.208 133.785 39.16 133.785 38.92C133.785 38.872 133.801 38.816 133.833 38.752C134.729 37.568 135.505 36.168 136.161 34.552C136.817 32.936 137.273 31.4 137.529 29.944C137.625 29.448 137.849 29.2 138.201 29.2C138.553 29.2 138.809 29.424 138.969 29.872C139.017 30.016 139.041 30.184 139.041 30.376ZM178.99 35.392C178.99 36.304 178.662 37.152 178.006 37.936C177.078 39.056 175.838 39.864 174.286 40.36C173.134 40.728 172.014 40.912 170.926 40.912C170.526 40.912 170.134 40.888 169.75 40.84C167.238 40.52 165.11 39.968 163.366 39.184C161.782 40.352 160.11 40.936 158.35 40.936C156.27 40.936 154.982 40.36 154.486 39.208C154.374 38.936 154.318 38.616 154.318 38.248C154.318 37.88 154.502 37.488 154.87 37.072C155.446 36.432 156.246 36.112 157.27 36.112C157.942 36.112 158.55 36.208 159.094 36.4C159.638 36.592 160.31 36.904 161.11 37.336C161.91 37.768 162.502 38.08 162.886 38.272C163.59 37.584 164.318 36.632 165.07 35.416C165.822 34.184 166.478 32.984 167.038 31.816C167.614 30.632 168.342 29.32 169.222 27.88C170.102 26.44 170.998 25.216 171.91 24.208L173.278 22.648C172.014 22.424 170.622 22.312 169.102 22.312C167.582 22.312 165.91 22.512 164.086 22.912C161.59 23.44 159.67 24.512 158.326 26.128C157.51 27.104 157.102 28.032 157.102 28.912C157.102 30.08 157.67 30.84 158.806 31.192C159.206 31.304 159.558 31.36 159.862 31.36C160.166 31.36 160.518 31.304 160.918 31.192C161.318 31.08 161.702 30.848 162.07 30.496C162.454 30.128 162.726 29.776 162.886 29.44C163.062 29.104 163.15 28.856 163.15 28.696C163.15 28.52 163.23 28.432 163.39 28.432C163.55 28.448 163.638 28.56 163.654 28.768V28.792C163.478 29.96 162.854 30.848 161.782 31.456C161.126 31.808 160.47 31.984 159.814 31.984L158.566 31.768C156.87 31.176 156.022 30.072 156.022 28.456C156.022 27.352 156.51 26.264 157.486 25.192C159.054 23.432 161.358 22.336 164.398 21.904C165.87 21.696 167.398 21.592 168.982 21.592C170.582 21.592 172.206 21.768 173.854 22.12C174.302 21.736 174.694 21.48 175.03 21.352C175.366 21.224 175.558 21.16 175.606 21.16C175.67 21.16 175.71 21.168 175.726 21.184C175.822 21.184 175.838 21.24 175.774 21.352C175.726 21.448 175.55 21.592 175.246 21.784C174.958 21.976 174.782 22.152 174.718 22.312C176.894 22.872 178.462 23.672 179.422 24.712C179.934 25.288 180.19 25.88 180.19 26.488C180.19 27.08 180.014 27.68 179.662 28.288C179.198 29.088 178.446 29.696 177.406 30.112C176.366 30.512 175.318 30.736 174.262 30.784C175.286 31.104 176.238 31.552 177.118 32.128C178.366 32.944 178.99 34.032 178.99 35.392ZM170.59 40.24C172.382 40.24 173.902 39.728 175.15 38.704C176.51 37.616 177.19 36.44 177.19 35.176C177.19 33.864 176.494 32.872 175.102 32.2C174.59 31.96 173.958 31.728 173.206 31.504C172.47 31.264 171.87 31.064 171.406 30.904C170.958 30.744 170.702 30.592 170.638 30.448C170.638 30.144 170.87 29.984 171.334 29.968C171.638 29.968 172.102 29.992 172.726 30.04C173.35 30.088 173.886 30.112 174.334 30.112C174.782 30.096 175.318 29.936 175.942 29.632C176.582 29.312 177.126 28.904 177.574 28.408C178.294 27.608 178.654 26.856 178.654 26.152C178.654 24.648 177.246 23.568 174.43 22.912C173.582 24.08 172.062 26.552 169.87 30.328C167.678 34.088 165.99 36.608 164.806 37.888L163.894 38.752C165.702 39.504 167.646 39.984 169.726 40.192C170.03 40.224 170.318 40.24 170.59 40.24ZM162.358 38.728C160.486 37.832 159.302 37.296 158.806 37.12C158.31 36.944 157.814 36.856 157.318 36.856C156.838 36.856 156.454 37.032 156.166 37.384C155.878 37.72 155.734 38.032 155.734 38.32C155.734 38.592 155.798 38.856 155.926 39.112C156.278 39.832 157.014 40.192 158.134 40.192C159.654 40.192 161.062 39.704 162.358 38.728ZM185.086 36.304C184.862 36.848 184.75 37.456 184.75 38.128C184.75 38.576 184.846 38.936 185.038 39.208C185.246 39.464 185.534 39.592 185.902 39.592C187.358 39.592 188.678 38.224 189.862 35.488C189.974 35.232 190.11 35.12 190.27 35.152C190.334 35.168 190.366 35.208 190.366 35.272C190.366 35.336 190.182 35.76 189.814 36.544C189.462 37.312 189.102 37.936 188.734 38.416C187.918 39.536 186.91 40.096 185.71 40.096C185.07 40.096 184.526 39.888 184.078 39.472C183.63 39.056 183.406 38.488 183.406 37.768C183.406 37.048 183.574 36.288 183.91 35.488C184.262 34.672 184.734 33.92 185.326 33.232C185.918 32.528 186.598 32.016 187.366 31.696C187.734 31.536 188.086 31.456 188.422 31.456C188.758 31.456 189.07 31.552 189.358 31.744C189.63 31.968 189.766 32.216 189.766 32.488C189.766 33.448 189.19 34.368 188.038 35.248C187.686 35.52 187.19 35.768 186.55 35.992C185.91 36.2 185.422 36.304 185.086 36.304ZM189.118 32.464C189.118 32.144 188.99 31.984 188.734 31.984C188.286 31.984 187.606 32.536 186.694 33.64C186.15 34.312 185.67 35.064 185.254 35.896C185.526 35.896 185.918 35.8 186.43 35.608C186.958 35.416 187.414 35.16 187.798 34.84C188.678 34.088 189.118 33.296 189.118 32.464ZM200.833 33.496C200.545 33.784 200.137 34.44 199.609 35.464C199.081 36.472 198.761 37.232 198.649 37.744C198.553 38.24 198.505 38.648 198.505 38.968C198.505 39.272 198.625 39.424 198.865 39.424C199.169 39.424 199.545 39.144 199.993 38.584C200.649 37.768 201.297 36.704 201.937 35.392C202.001 35.248 202.073 35.168 202.153 35.152C202.281 35.104 202.345 35.152 202.345 35.296C202.345 35.376 202.321 35.472 202.273 35.584C200.801 38.56 199.561 40.048 198.553 40.048C198.089 40.048 197.713 39.824 197.425 39.376C197.281 39.136 197.209 38.816 197.209 38.416C197.209 38.016 197.289 37.528 197.449 36.952C196.169 39.016 195.065 40.048 194.137 40.048C193.881 40.048 193.649 39.968 193.441 39.808C192.961 39.472 192.721 38.896 192.721 38.08C192.721 36.512 193.401 34.92 194.761 33.304C195.529 32.408 196.473 31.824 197.593 31.552C197.897 31.472 198.185 31.432 198.457 31.432C199.193 31.432 199.817 31.688 200.329 32.2C200.489 32.376 200.537 32.544 200.473 32.704C200.409 32.864 200.273 32.928 200.065 32.896C199.889 32.32 199.505 32.032 198.913 32.032C198.225 32.032 197.377 32.576 196.369 33.664C195.793 34.304 195.257 35.056 194.761 35.92C194.137 36.96 193.825 37.792 193.825 38.416C193.825 39.04 194.025 39.352 194.425 39.352C195.385 39.352 196.641 37.88 198.193 34.936C198.497 34.344 198.753 33.944 198.961 33.736C199.169 33.512 199.433 33.4 199.753 33.4C199.817 33.4 199.977 33.424 200.233 33.472C200.505 33.52 200.705 33.528 200.833 33.496ZM204.687 38.608C204.687 37.92 204.983 37.088 205.575 36.112C205.319 36.112 205.247 35.984 205.359 35.728L205.791 34.888C206.335 33.848 206.783 32.968 207.135 32.248C207.295 31.912 207.607 31.744 208.071 31.744H209.535C208.959 32.16 208.375 32.968 207.783 34.168C207.207 35.352 206.759 36.288 206.439 36.976C206.119 37.648 205.959 38.16 205.959 38.512C205.959 38.864 206.015 39.112 206.127 39.256C206.255 39.4 206.423 39.472 206.631 39.472C206.935 39.472 207.359 39.152 207.903 38.512C208.751 37.52 209.943 35.432 211.479 32.248C211.655 31.912 211.967 31.744 212.415 31.744H213.711C213.359 32.016 213.079 32.296 212.871 32.584C212.679 32.872 212.407 33.384 212.055 34.12C211.095 36.04 210.559 37.312 210.447 37.936C210.399 38.16 210.375 38.368 210.375 38.56C210.375 39.072 210.551 39.344 210.903 39.376C211.767 39.376 212.831 38.04 214.095 35.368C214.191 35.144 214.287 35.056 214.383 35.104C214.479 35.152 214.527 35.216 214.527 35.296C214.527 35.376 214.455 35.56 214.311 35.848C214.167 36.136 214.023 36.416 213.879 36.688C213.751 36.96 213.543 37.336 213.255 37.816C212.983 38.28 212.727 38.648 212.487 38.92C211.863 39.624 211.247 39.976 210.639 39.976C210.047 39.976 209.639 39.712 209.415 39.184C209.319 38.944 209.271 38.64 209.271 38.272C209.271 37.904 209.351 37.448 209.511 36.904C208.343 38.952 207.263 39.976 206.271 39.976C205.407 39.976 204.903 39.616 204.759 38.896C204.711 38.816 204.687 38.72 204.687 38.608ZM217.105 38.08C217.105 36.752 217.745 34.528 219.025 31.408H217.777C217.697 31.408 217.641 31.368 217.609 31.288C217.593 31.192 217.601 31.104 217.633 31.024C217.681 30.928 217.745 30.88 217.825 30.88H219.265C219.841 29.616 220.377 28.56 220.873 27.712C221.369 26.864 221.825 26.296 222.241 26.008C222.657 25.704 222.953 25.552 223.129 25.552C223.321 25.552 223.457 25.568 223.537 25.6C223.905 25.776 224.089 26.144 224.089 26.704C224.089 27.248 223.905 27.912 223.537 28.696C223.169 29.48 222.809 30.208 222.457 30.88H223.609C223.689 30.88 223.737 30.928 223.753 31.024C223.785 31.104 223.777 31.192 223.729 31.288C223.697 31.368 223.641 31.408 223.561 31.408H222.169C221.289 32.896 220.225 34.216 218.977 35.368L218.425 37.816C218.377 38.024 218.353 38.232 218.353 38.44C218.353 38.632 218.409 38.832 218.521 39.04C218.633 39.248 218.809 39.352 219.049 39.352C219.321 39.352 219.625 39.256 219.961 39.064C220.729 38.488 221.577 37.28 222.505 35.44C222.569 35.296 222.641 35.208 222.721 35.176C222.817 35.144 222.873 35.168 222.889 35.248C222.905 35.312 222.881 35.424 222.817 35.584C222.289 36.688 221.873 37.472 221.569 37.936C220.705 39.328 219.785 40.024 218.809 40.024C218.313 40.024 217.905 39.84 217.585 39.472C217.265 39.104 217.105 38.64 217.105 38.08ZM221.929 30.88C222.985 28.992 223.513 27.68 223.513 26.944C223.513 26.624 223.457 26.464 223.345 26.464C223.169 26.464 222.897 26.72 222.529 27.232C222.177 27.744 221.577 28.96 220.729 30.88H221.929ZM221.617 31.408H220.489C220.297 31.856 219.865 32.92 219.193 34.6C220.057 33.704 220.865 32.64 221.617 31.408ZM222.798 47.584C222.094 47.584 221.55 47.432 221.166 47.128C220.782 46.84 220.59 46.488 220.59 46.072C220.59 45.656 220.71 45.184 220.95 44.656C221.366 43.84 222.118 43.184 223.206 42.688C224.022 42.304 225.102 41.944 226.446 41.608C227.79 41.288 228.654 41.072 229.038 40.96C229.614 39.952 230.302 38.152 231.102 35.56C230.174 37.192 229.398 38.336 228.774 38.992C228.15 39.648 227.518 39.976 226.878 39.976C226.014 39.976 225.51 39.616 225.366 38.896C225.302 38.784 225.286 38.616 225.318 38.392C225.35 38.168 225.366 38.008 225.366 37.912C225.382 37.816 225.438 37.664 225.534 37.456C225.63 37.232 225.694 37.072 225.726 36.976C225.902 36.608 226.054 36.32 226.182 36.112C225.926 36.112 225.854 35.984 225.966 35.728L226.398 34.888C226.942 33.848 227.39 32.968 227.742 32.248C227.902 31.912 228.214 31.744 228.678 31.744H230.142C230.11 31.776 230.03 31.84 229.902 31.936C229.614 32.128 229.398 32.352 229.254 32.608C228.678 33.6 227.958 35.016 227.094 36.856C226.742 37.608 226.566 38.16 226.566 38.512C226.566 38.864 226.622 39.112 226.734 39.256C226.862 39.4 227.03 39.472 227.238 39.472C227.542 39.472 227.966 39.152 228.51 38.512C229.646 37.184 230.902 35.096 232.278 32.248C232.454 31.912 232.766 31.744 233.214 31.744H234.51C234.094 32.032 233.766 32.4 233.526 32.848C233.286 33.28 233.022 33.872 232.734 34.624C232.462 35.376 232.11 36.376 231.678 37.624C231.262 38.872 230.942 39.808 230.718 40.432C232.222 39.984 233.374 39.192 234.174 38.056C234.526 37.56 235.03 36.68 235.686 35.416C235.798 35.192 235.894 35.104 235.974 35.152C236.07 35.2 236.118 35.264 236.118 35.344C236.118 35.424 235.982 35.736 235.71 36.28C235.454 36.808 235.19 37.304 234.918 37.768C234.646 38.216 234.294 38.68 233.862 39.16C233.43 39.64 232.95 40.016 232.422 40.288C231.894 40.576 231.19 40.88 230.31 41.2C229.078 43.44 227.838 45.088 226.59 46.144C225.422 47.104 224.158 47.584 222.798 47.584ZM221.406 45.208C221.23 45.56 221.142 45.88 221.142 46.168C221.142 46.472 221.254 46.704 221.478 46.864C221.702 47.024 221.982 47.104 222.318 47.104C223.246 47.104 224.238 46.624 225.294 45.664C226.35 44.72 227.278 43.704 228.078 42.616L228.606 41.728C225.966 42.416 224.302 42.912 223.614 43.216C222.59 43.664 221.854 44.328 221.406 45.208ZM269.363 23.704C269.363 23.144 269.107 22.616 268.595 22.12C267.859 21.416 266.843 21.064 265.547 21.064C264.411 21.064 263.155 21.312 261.779 21.808C261.059 22.064 260.435 22.416 259.907 22.864C259.091 23.568 258.683 24.272 258.683 24.976C258.683 25.92 259.283 26.768 260.483 27.52C260.931 27.792 261.827 28.24 263.171 28.864C264.531 29.472 265.523 29.968 266.147 30.352C267.091 30.928 267.739 31.544 268.091 32.2C268.459 32.856 268.643 33.464 268.643 34.024C268.643 34.824 268.379 35.64 267.851 36.472C266.923 37.96 265.563 39.24 263.771 40.312C261.707 41.56 259.219 42.184 256.307 42.184C253.507 42.184 251.283 41.472 249.635 40.048C248.355 38.96 247.715 37.56 247.715 35.848C247.715 34.76 248.107 33.56 248.891 32.248C249.691 30.936 250.667 30.008 251.819 29.464C252.059 29.368 252.235 29.336 252.347 29.368C252.475 29.4 252.379 29.552 252.059 29.824C251.371 30.368 250.819 30.968 250.403 31.624C249.507 33.032 249.059 34.56 249.059 36.208C249.059 37.296 249.363 38.248 249.971 39.064C251.059 40.52 252.947 41.344 255.635 41.536C255.939 41.568 256.387 41.584 256.979 41.584C257.587 41.584 258.403 41.472 259.427 41.248C260.467 41.04 261.467 40.688 262.427 40.192C264.491 39.104 265.827 37.696 266.435 35.968C266.627 35.456 266.723 34.96 266.723 34.48C266.723 33.392 266.235 32.432 265.259 31.6C264.731 31.184 263.651 30.632 262.019 29.944C260.403 29.24 259.315 28.704 258.755 28.336C257.523 27.504 256.907 26.52 256.907 25.384C256.907 24.392 257.459 23.424 258.563 22.48C260.147 21.136 262.387 20.464 265.283 20.464C266.643 20.464 267.747 20.672 268.595 21.088C269.459 21.488 269.987 22.096 270.179 22.912C270.211 23.072 270.227 23.232 270.227 23.392C270.227 24.016 269.939 24.576 269.363 25.072C268.963 25.392 268.427 25.648 267.755 25.84C267.467 25.92 267.307 25.888 267.275 25.744C267.243 25.536 267.443 25.408 267.875 25.36C268.643 25.264 269.115 24.88 269.291 24.208C269.339 24.032 269.363 23.864 269.363 23.704ZM281.636 33.496C281.348 33.784 280.94 34.44 280.412 35.464C279.884 36.472 279.564 37.232 279.452 37.744C279.356 38.24 279.308 38.648 279.308 38.968C279.308 39.272 279.428 39.424 279.668 39.424C279.972 39.424 280.348 39.144 280.796 38.584C281.452 37.768 282.1 36.704 282.74 35.392C282.804 35.248 282.876 35.168 282.956 35.152C283.084 35.104 283.148 35.152 283.148 35.296C283.148 35.376 283.124 35.472 283.076 35.584C281.604 38.56 280.364 40.048 279.356 40.048C278.892 40.048 278.516 39.824 278.228 39.376C278.084 39.136 278.012 38.816 278.012 38.416C278.012 38.016 278.092 37.528 278.252 36.952C276.972 39.016 275.868 40.048 274.94 40.048C274.684 40.048 274.452 39.968 274.244 39.808C273.764 39.472 273.524 38.896 273.524 38.08C273.524 36.512 274.204 34.92 275.564 33.304C276.332 32.408 277.276 31.824 278.396 31.552C278.7 31.472 278.988 31.432 279.26 31.432C279.996 31.432 280.62 31.688 281.132 32.2C281.292 32.376 281.34 32.544 281.276 32.704C281.212 32.864 281.076 32.928 280.868 32.896C280.692 32.32 280.308 32.032 279.716 32.032C279.028 32.032 278.18 32.576 277.172 33.664C276.596 34.304 276.06 35.056 275.564 35.92C274.94 36.96 274.628 37.792 274.628 38.416C274.628 39.04 274.828 39.352 275.228 39.352C276.188 39.352 277.444 37.88 278.996 34.936C279.3 34.344 279.556 33.944 279.764 33.736C279.972 33.512 280.236 33.4 280.556 33.4C280.62 33.4 280.78 33.424 281.036 33.472C281.308 33.52 281.508 33.528 281.636 33.496ZM287.65 35.368C287.634 35.432 287.562 35.656 287.434 36.04C287.306 36.408 287.194 36.768 287.098 37.12C287.018 37.456 286.978 37.8 286.978 38.152C286.978 38.488 287.058 38.808 287.218 39.112C287.378 39.4 287.634 39.544 287.986 39.544C288.562 39.544 289.122 39.16 289.666 38.392C290.21 37.608 290.786 36.616 291.394 35.416C291.522 35.192 291.642 35.104 291.754 35.152C291.834 35.216 291.85 35.304 291.802 35.416C291.754 35.512 291.65 35.736 291.49 36.088C291.346 36.424 291.234 36.664 291.154 36.808C291.09 36.936 290.962 37.176 290.77 37.528C290.594 37.864 290.434 38.12 290.29 38.296C290.162 38.456 289.978 38.672 289.738 38.944C289.514 39.2 289.298 39.392 289.09 39.52C288.53 39.872 288.002 40.048 287.506 40.048C287.01 40.048 286.626 39.944 286.354 39.736C286.082 39.512 285.914 39.28 285.85 39.04C285.802 38.784 285.778 38.56 285.778 38.368C285.778 38.176 285.786 37.928 285.802 37.624C285.85 37.112 285.946 36.616 286.09 36.136C286.25 35.656 286.338 35.384 286.354 35.32C286.722 33.992 287.242 32.544 287.914 30.976C288.602 29.408 289.178 28.232 289.642 27.448C290.122 26.648 290.498 26.104 290.77 25.816C291.314 25.24 291.85 24.952 292.378 24.952C292.746 24.952 292.994 25.216 293.122 25.744C293.138 25.84 293.146 25.96 293.146 26.104C293.146 26.648 292.954 27.336 292.57 28.168C291.194 31.224 289.554 33.624 287.65 35.368ZM287.842 34.6C288.658 33.768 289.466 32.72 290.266 31.456C291.066 30.192 291.65 29.12 292.018 28.24C292.402 27.344 292.594 26.736 292.594 26.416C292.594 26.096 292.538 25.936 292.426 25.936C292.266 25.936 291.962 26.256 291.514 26.896C291.066 27.52 290.458 28.656 289.69 30.304C288.938 31.936 288.322 33.368 287.842 34.6ZM299.384 31.6C300.552 31.6 301.136 32.336 301.136 33.808C301.136 34.48 300.96 35.2 300.608 35.968C300.16 37.008 299.488 37.952 298.592 38.8C298.8 39.2 299.176 39.4 299.72 39.4C300.152 39.4 300.56 39.184 300.944 38.752C301.424 38.256 301.768 37.824 301.976 37.456C302.184 37.072 302.336 36.792 302.432 36.616C302.528 36.44 302.648 36.192 302.792 35.872C302.952 35.536 303.048 35.336 303.08 35.272C303.112 35.192 303.168 35.152 303.248 35.152C303.408 35.136 303.488 35.192 303.488 35.32C303.488 35.368 303.472 35.424 303.44 35.488L303.296 35.824C303.2 36.048 303.128 36.208 303.08 36.304C303.032 36.4 302.944 36.576 302.816 36.832C302.704 37.072 302.6 37.264 302.504 37.408C302.424 37.552 302.304 37.744 302.144 37.984C302 38.224 301.864 38.416 301.736 38.56C301.624 38.704 301.48 38.864 301.304 39.04C301.128 39.216 300.96 39.352 300.8 39.448C300.4 39.688 300.024 39.808 299.672 39.808C299.016 39.808 298.504 39.6 298.136 39.184C297.4 39.728 296.72 40 296.096 40C294.928 40 294.344 39.264 294.344 37.792C294.344 37.12 294.52 36.4 294.872 35.632C295.352 34.512 296.024 33.56 296.888 32.776C297.768 31.992 298.6 31.6 299.384 31.6ZM299.648 32.344C299.216 32.344 298.704 32.632 298.112 33.208C297.52 33.784 296.992 34.568 296.528 35.56C295.968 36.712 295.688 37.656 295.688 38.392C295.688 39.128 295.968 39.496 296.528 39.496C296.928 39.496 297.376 39.28 297.872 38.848C297.616 38.48 297.488 38.088 297.488 37.672C297.52 36.984 297.8 36.64 298.328 36.64C298.536 36.64 298.704 36.712 298.832 36.856C298.976 37 299.048 37.136 299.048 37.264C299.048 37.376 299.032 37.496 299 37.624C299.272 37.224 299.584 36.656 299.936 35.92C300.336 35.104 300.536 34.304 300.536 33.52C300.536 32.736 300.24 32.344 299.648 32.344ZM313.904 32.128C311.936 35.584 310.952 37.84 310.952 38.896C310.952 39.312 311.104 39.52 311.408 39.52C312.224 39.52 313.32 38.136 314.696 35.368C314.792 35.144 314.888 35.056 314.984 35.104C315.08 35.152 315.128 35.216 315.128 35.296C315.128 35.376 315.096 35.472 315.032 35.584C314.184 37.296 313.464 38.48 312.872 39.136C312.296 39.776 311.712 40.096 311.12 40.096C310.544 40.096 310.104 39.872 309.8 39.424C309.64 39.216 309.56 38.936 309.56 38.584C309.56 38.216 309.64 37.776 309.8 37.264C309.96 36.752 310.4 35.92 311.12 34.768C311.296 34.48 311.384 34.256 311.384 34.096C311.384 33.92 311.248 33.832 310.976 33.832C310.704 33.832 310.184 34.192 309.416 34.912C308.264 35.968 307.152 37.552 306.08 39.664C305.984 39.824 305.872 39.928 305.744 39.976C305.632 40.008 305.4 40.032 305.048 40.048C304.696 40.064 304.464 40.104 304.352 40.168C304.608 39.656 305.112 38.608 305.864 37.024C307.208 34.224 308.088 32.624 308.504 32.224C308.696 32.032 308.96 31.936 309.296 31.936C309.36 31.936 309.52 31.96 309.776 32.008C310.048 32.056 310.248 32.064 310.376 32.032C309.784 32.352 308.816 33.856 307.472 36.544C308.224 35.616 308.904 34.88 309.512 34.336C310.136 33.776 310.88 33.264 311.744 32.8C312.608 32.32 313.24 32.08 313.64 32.08C313.736 32.08 313.824 32.096 313.904 32.128Z" fill="#F8F9FA"/>
<path d="M58.1766 57.7609C58.1766 57.7609 54.9697 23.2607 53.5391 17.5382C51.8459 10.7679 48.0703 4.86166 40.7509 3.53057C39.8355 3.36432 30.1634 3.36432 29.248 3.53057C26.0137 4.11901 23.4719 5.60104 21.4955 7.6562C21.4955 7.6562 16.4062 13.1249 15.3716 22.9687C14.6212 30.1065 14.1827 37.3001 13.5548 44.4434C13.1633 48.896 12.5825 53.3574 11.8234 57.762C11.4734 59.7963 10.6509 65.0726 8.75 66.2232H61.483C59.582 65.0726 58.5266 59.7953 58.1766 57.7609V57.7609Z" fill="#634627"/>
<path d="M34.4531 7.65632C42.3861 7.65632 49.4386 12.3332 53.9382 19.5859C53.795 18.7284 53.6604 18.024 53.539 17.5395C51.8459 10.7691 48.0703 4.86289 40.7509 3.53179C39.8354 3.36554 30.1634 3.36554 29.2479 3.53179C26.0137 4.11914 23.4718 5.60117 21.4954 7.65632C21.4954 7.65632 18.3236 11.0841 16.4795 17.3732C20.9704 11.3969 27.359 7.65632 34.4531 7.65632V7.65632Z" fill="#634627"/>
<path d="M50.3125 29.5312H19.6875C19.6875 29.5312 17.9692 33.3594 21.875 47.0313C24.0625 54.6875 20.7813 59.0625 16.4063 62.3438C14.537 63.7459 9.32642 66.9528 9.32642 66.9528H61.25C61.25 66.9528 51.4063 64.5313 49.2188 61.25C47.0313 57.9688 45.9375 50.3125 50.3125 29.5312Z" fill="#5C3D1D"/>
<path d="M65.625 67.8125C65.625 66.5886 64.6625 65.5812 63.4397 65.5266L51.3931 64.9808C47.1012 64.7281 43.75 61.1745 43.75 56.875V42.6562H26.25V56.875C26.25 61.1745 22.8987 64.7281 18.6069 64.9808L6.56031 65.5266C5.3375 65.5812 4.375 66.5886 4.375 67.8125H65.625Z" fill="#FBC188"/>
<path d="M35 17.7034C31.7187 23.8897 18.5948 28.9636 18.5937 28.9647C17.991 29.1976 22.4503 43.4306 23.0562 44.7365C25.5128 50.0248 29.5717 53.5937 35 53.5937C47.0312 53.5937 48.3503 38.3556 51.136 28.8389C51.136 28.8389 38.9385 10.2768 35 17.7034Z" fill="#FBC997"/>
<path d="M13.3131 10.7494C15.0215 9.04094 15.0215 6.27047 13.3131 4.56203L12.0312 3.28125L10.7493 4.56312C9.04091 6.27156 9.04091 9.04203 10.7493 10.7505L12.0312 12.0312L13.3131 10.7494Z" fill="#F4D3CC"/>
<path d="M10.7493 13.3131C9.04091 15.0216 9.04091 17.792 10.7493 19.5005L12.0312 20.7812L13.3131 19.4994C15.0215 17.7909 15.0215 15.0205 13.3131 13.312L12.0312 12.0312L10.7493 13.3131Z" fill="#F4D3CC"/>
<path d="M10.7494 13.3131L12.0312 12.0312L10.7494 10.7493C9.04094 9.04091 6.27047 9.04091 4.56203 10.7493L3.28125 12.0312L4.56312 13.3131C6.27156 15.0215 9.04094 15.0215 10.7494 13.3131Z" fill="#F4D3CC"/>
<path d="M13.3131 13.3131C15.0216 15.0215 17.792 15.0215 19.5005 13.3131L20.7812 12.0312L19.4994 10.7493C17.7909 9.04091 15.0205 9.04091 13.312 10.7493L12.0312 12.0312L13.3131 13.3131Z" fill="#F4D3CC"/>
<path d="M60.3443 43.5619C62.0528 41.8534 62.0528 39.083 60.3443 37.3745L59.0625 36.0938L57.7806 37.3756C56.0722 39.0841 56.0722 41.8545 57.7806 43.563L59.0625 44.8438L60.3443 43.5619Z" fill="#F4D3CC"/>
<path d="M57.7806 46.1256C56.0722 47.8341 56.0722 50.6045 57.7806 52.313L59.0625 53.5938L60.3443 52.3119C62.0528 50.6034 62.0528 47.833 60.3443 46.1245L59.0625 44.8438L57.7806 46.1256Z" fill="#F4D3CC"/>
<path d="M57.7806 43.5618C56.0722 41.8534 53.3017 41.8534 51.5933 43.5618L50.3125 44.8437L51.5944 46.1256C53.3028 47.834 56.0733 47.834 57.7817 46.1256L59.0625 44.8437L57.7806 43.5618Z" fill="#F4D3CC"/>
<path d="M60.3444 43.5618L59.0625 44.8437L60.3444 46.1256C62.0528 47.834 64.8233 47.834 66.5317 46.1256L67.8125 44.8437L66.5306 43.5618C64.8222 41.8534 62.0528 41.8534 60.3444 43.5618Z" fill="#F4D3CC"/>
<path d="M56.875 2.1875H59.0625V4.375H56.875V2.1875Z" fill="#F4D3CC"/>
<path d="M59.0625 4.375H61.25V6.5625H59.0625V4.375Z" fill="#F4D3CC"/>
<path d="M54.6875 4.375H56.875V6.5625H54.6875V4.375Z" fill="#F4D3CC"/>
<path d="M56.875 6.5625H59.0625V8.75H56.875V6.5625Z" fill="#F4D3CC"/>
<path d="M4.375 27.3438H6.5625V29.5312H4.375V27.3438Z" fill="#F4D3CC"/>
<path d="M6.5625 29.5312H8.75V31.7188H6.5625V29.5312Z" fill="#F4D3CC"/>
<path d="M2.1875 29.5312H4.375V31.7188H2.1875V29.5312Z" fill="#F4D3CC"/>
<path d="M4.375 31.7188H6.5625V33.9062H4.375V31.7188Z" fill="#F4D3CC"/>
<path d="M63.4375 13.125H65.625V15.3125H63.4375V13.125Z" fill="#F4D3CC"/>
<path d="M65.625 15.3125H67.8125V17.5H65.625V15.3125Z" fill="#F4D3CC"/>
<path d="M61.25 15.3125H63.4375V17.5H61.25V15.3125Z" fill="#F4D3CC"/>
<path d="M63.4375 17.5H65.625V19.6875H63.4375V17.5Z" fill="#F4D3CC"/>
<path d="M59.0625 45.9375C59.6666 45.9375 60.1562 45.4478 60.1562 44.8438C60.1562 44.2397 59.6666 43.75 59.0625 43.75C58.4584 43.75 57.9688 44.2397 57.9688 44.8438C57.9688 45.4478 58.4584 45.9375 59.0625 45.9375Z" fill="#FF8261"/>
<path d="M12.0312 13.125C12.6353 13.125 13.125 12.6353 13.125 12.0312C13.125 11.4272 12.6353 10.9375 12.0312 10.9375C11.4272 10.9375 10.9375 11.4272 10.9375 12.0312C10.9375 12.6353 11.4272 13.125 12.0312 13.125Z" fill="#FF8261"/>
<path d="M30.625 44.8438H39.375V45.9375C39.375 47.7498 37.4161 49.2188 35 49.2188C32.5839 49.2188 30.625 47.7498 30.625 45.9375V44.8438Z" fill="#FFB484"/>
<path d="M32.0063 34.1359C31.6891 33.8657 31.1925 33.8384 30.825 34.0571C30.1327 34.4684 28.8858 35.0404 27.3086 35.0404C25.7435 35.0404 24.4889 34.464 23.7911 34.0528C23.4236 33.8362 22.9303 33.8646 22.6132 34.1337L22.5442 34.1928C22.145 34.5329 22.1942 35.0962 22.6558 35.3729C22.6591 35.3751 22.6635 35.3773 22.6667 35.3795C22.5136 35.4812 22.3167 35.5753 22.0542 35.6431C21.0841 35.8935 20.5886 35.8935 20.5886 35.8935C20.5886 35.8935 22.3758 36.167 23.2147 35.6781C23.4083 35.7765 23.6183 35.8739 23.8469 35.9701C23.7671 36.0248 23.6785 36.0784 23.5757 36.1298C22.6974 36.5607 22.215 36.657 22.215 36.657C22.215 36.657 23.5647 36.5968 24.3763 36.1713C24.653 36.2676 24.9472 36.3562 25.2622 36.4306C25.1682 36.4995 25.061 36.5662 24.933 36.6296C24.0022 37.0857 23.4914 37.1874 23.4914 37.1874C23.4914 37.1874 25.1441 37.1153 25.9644 36.5662C26.3877 36.6318 26.835 36.6745 27.3075 36.6745C29.401 36.6745 31.0394 35.9242 31.9603 35.3718C32.4219 35.0951 32.4711 34.5307 32.0719 34.1917L32.0063 34.1359Z" fill="#FF8261"/>
<path d="M49.2188 35.8924C49.2188 35.8924 48.7233 35.8924 47.7532 35.642C47.5344 35.5851 47.3638 35.5096 47.2216 35.4276C47.2533 35.409 47.2905 35.3893 47.32 35.3718C47.7816 35.0951 47.8308 34.5307 47.4316 34.1917L47.366 34.1359C47.0488 33.8657 46.5522 33.8384 46.1847 34.0571C45.4924 34.4684 44.2455 35.0404 42.6683 35.0404C41.1032 35.0404 39.8475 34.464 39.1486 34.0517C38.78 33.834 38.2857 33.8635 37.9696 34.1337L37.9007 34.1927C37.5036 34.5329 37.5529 35.0962 38.0133 35.3718C38.9343 35.9242 40.5727 36.6756 42.6672 36.6756C43.0894 36.6756 43.4875 36.6384 43.8704 36.5859C44.7005 37.1163 46.3149 37.1874 46.3149 37.1874C46.3149 37.1874 45.8041 37.0857 44.8744 36.6285C44.7629 36.5738 44.6666 36.5159 44.5813 36.4568C44.9061 36.3846 45.2146 36.3015 45.5011 36.2053C46.3182 36.599 47.5913 36.6548 47.5913 36.6548C47.5913 36.6548 47.1089 36.5585 46.2307 36.1276C46.1541 36.0904 46.0939 36.0499 46.0305 36.0106C46.2668 35.9154 46.48 35.8159 46.6802 35.7163C47.5497 36.1429 49.2188 35.8924 49.2188 35.8924V35.8924Z" fill="#FF8261"/>
</svg>
